<mxfile host="app.diagrams.net" agent="Mozilla/5.0 (Windows NT 10.0; Win64; x64) AppleWebKit/537.36 (KHTML, like Gecko) Chrome/135.0.0.0 Safari/537.36" version="26.2.14">
  <diagram name="Page-1" id="30-xfxYBGeVBaRwV87rD">
    <mxGraphModel>
      <root>
        <mxCell id="0" />
        <mxCell id="1" parent="0" />
        <mxCell id="2" value="User A" style="whiteSpace=wrap;strokeWidth=2;" vertex="1" parent="1">
          <mxGeometry x="255" y="8" width="105" height="54" as="geometry" />
        </mxCell>
        <mxCell id="3" value="OCR Process" style="whiteSpace=wrap;strokeWidth=2;" vertex="1" parent="1">
          <mxGeometry x="150" y="134" width="147" height="54" as="geometry" />
        </mxCell>
        <mxCell id="4" value="Database" style="whiteSpace=wrap;strokeWidth=2;" vertex="1" parent="1">
          <mxGeometry x="160" y="261" width="126" height="54" as="geometry" />
        </mxCell>
        <mxCell id="5" value="Payment Gateway" style="whiteSpace=wrap;strokeWidth=2;" vertex="1" parent="1">
          <mxGeometry x="224" y="387" width="189" height="54" as="geometry" />
        </mxCell>
        <mxCell id="6" value="User B" style="whiteSpace=wrap;strokeWidth=2;" vertex="1" parent="1">
          <mxGeometry x="780" y="8" width="106" height="54" as="geometry" />
        </mxCell>
        <mxCell id="7" value="OCR Process" style="whiteSpace=wrap;strokeWidth=2;" vertex="1" parent="1">
          <mxGeometry x="663" y="134" width="147" height="54" as="geometry" />
        </mxCell>
        <mxCell id="8" value="Database" style="whiteSpace=wrap;strokeWidth=2;" vertex="1" parent="1">
          <mxGeometry x="674" y="261" width="126" height="54" as="geometry" />
        </mxCell>
        <mxCell id="9" value="Payment Gateway" style="whiteSpace=wrap;strokeWidth=2;" vertex="1" parent="1">
          <mxGeometry x="737" y="387" width="189" height="54" as="geometry" />
        </mxCell>
        <mxCell id="10" value="Uploads Image" style="curved=1;startArrow=none;endArrow=block;exitX=0.16;exitY=1;entryX=0.5;entryY=0.01;" edge="1" parent="1" source="2" target="3">
          <mxGeometry relative="1" as="geometry">
            <Array as="points">
              <mxPoint x="223" y="98" />
            </Array>
          </mxGeometry>
        </mxCell>
        <mxCell id="11" value="Submits Order" style="curved=1;startArrow=none;endArrow=block;exitX=0;exitY=0.75;entryX=0;entryY=0.04;" edge="1" parent="1" source="2" target="4">
          <mxGeometry relative="1" as="geometry">
            <Array as="points">
              <mxPoint x="61" y="98" />
              <mxPoint x="61" y="225" />
            </Array>
          </mxGeometry>
        </mxCell>
        <mxCell id="12" value="Extracted Data" style="curved=1;startArrow=none;endArrow=block;exitX=0.5;exitY=1.01;entryX=0.5;entryY=0;" edge="1" parent="1" source="3" target="4">
          <mxGeometry relative="1" as="geometry">
            <Array as="points" />
          </mxGeometry>
        </mxCell>
        <mxCell id="13" value="Order Confirmation" style="curved=1;startArrow=none;endArrow=block;exitX=1;exitY=0.09;entryX=0.89;entryY=1;" edge="1" parent="1" source="4" target="2">
          <mxGeometry relative="1" as="geometry">
            <Array as="points">
              <mxPoint x="403" y="225" />
              <mxPoint x="403" y="98" />
            </Array>
          </mxGeometry>
        </mxCell>
        <mxCell id="14" value="Initiate Payment" style="curved=1;startArrow=none;endArrow=block;exitX=0.26;exitY=1;entryX=0.12;entryY=0;" edge="1" parent="1" source="4" target="5">
          <mxGeometry relative="1" as="geometry">
            <Array as="points">
              <mxPoint x="151" y="351" />
            </Array>
          </mxGeometry>
        </mxCell>
        <mxCell id="15" value="Uploads Image" style="curved=1;startArrow=none;endArrow=block;exitX=0.11;exitY=1;entryX=0.5;entryY=0.01;" edge="1" parent="1" source="6" target="7">
          <mxGeometry relative="1" as="geometry">
            <Array as="points">
              <mxPoint x="737" y="98" />
            </Array>
          </mxGeometry>
        </mxCell>
        <mxCell id="16" value="Submits Order" style="curved=1;startArrow=none;endArrow=block;exitX=0;exitY=0.74;entryX=0;entryY=0.04;" edge="1" parent="1" source="6" target="8">
          <mxGeometry relative="1" as="geometry">
            <Array as="points">
              <mxPoint x="575" y="98" />
              <mxPoint x="575" y="225" />
            </Array>
          </mxGeometry>
        </mxCell>
        <mxCell id="17" value="Extracted Data" style="curved=1;startArrow=none;endArrow=block;exitX=0.5;exitY=1.01;entryX=0.5;entryY=0;" edge="1" parent="1" source="7" target="8">
          <mxGeometry relative="1" as="geometry">
            <Array as="points" />
          </mxGeometry>
        </mxCell>
        <mxCell id="18" value="Order Confirmation" style="curved=1;startArrow=none;endArrow=block;exitX=1;exitY=0.09;entryX=0.84;entryY=1;" edge="1" parent="1" source="8" target="6">
          <mxGeometry relative="1" as="geometry">
            <Array as="points">
              <mxPoint x="917" y="225" />
              <mxPoint x="917" y="98" />
            </Array>
          </mxGeometry>
        </mxCell>
        <mxCell id="19" value="Initiate Payment" style="curved=1;startArrow=none;endArrow=block;exitX=0;exitY=0.98;entryX=0;entryY=0.06;" edge="1" parent="1" source="8" target="9">
          <mxGeometry relative="1" as="geometry">
            <Array as="points">
              <mxPoint x="584" y="351" />
            </Array>
          </mxGeometry>
        </mxCell>
        <mxCell id="20" value="Payment Success" style="curved=1;startArrow=none;endArrow=block;exitX=0.69;exitY=0;entryX=1;entryY=0.91;" edge="1" parent="1" source="5" target="4">
          <mxGeometry relative="1" as="geometry">
            <Array as="points">
              <mxPoint x="402" y="351" />
            </Array>
          </mxGeometry>
        </mxCell>
        <mxCell id="21" value="Payment Success" style="curved=1;startArrow=none;endArrow=block;exitX=0.7;exitY=0;entryX=1;entryY=0.9;" edge="1" parent="1" source="9" target="8">
          <mxGeometry relative="1" as="geometry">
            <Array as="points">
              <mxPoint x="919" y="351" />
            </Array>
          </mxGeometry>
        </mxCell>
        <mxCell id="22" value="Payment Failure" style="curved=1;startArrow=none;endArrow=block;exitX=0.9;exitY=0;entryX=1;entryY=0.83;" edge="1" parent="1" source="5" target="2">
          <mxGeometry relative="1" as="geometry">
            <Array as="points">
              <mxPoint x="495" y="351" />
              <mxPoint x="495" y="98" />
            </Array>
          </mxGeometry>
        </mxCell>
        <mxCell id="23" value="Payment Failure" style="curved=1;startArrow=none;endArrow=block;exitX=0.9;exitY=0;entryX=1;entryY=0.85;" edge="1" parent="1" source="9" target="6">
          <mxGeometry relative="1" as="geometry">
            <Array as="points">
              <mxPoint x="1009" y="351" />
              <mxPoint x="1009" y="98" />
            </Array>
          </mxGeometry>
        </mxCell>
      </root>
    </mxGraphModel>
  </diagram>
</mxfile>
